
<svg xmlns:dc="http://purl.org/dc/elements/1.1/" xmlns:cc="http://creativecommons.org/ns#" xmlns:rdf="http://www.w3.org/1999/02/22-rdf-syntax-ns#" xmlns:svg="http://www.w3.org/2000/svg" xmlns="http://www.w3.org/2000/svg" viewBox="0 0 704 704" fill="none"><metadata><rdf:RDF><cc:Work><dc:format>image/svg+xml</dc:format><dc:type rdf:resource="http://purl.org/dc/dcmitype/StillImage"/><dc:title>Open Peeps</dc:title><dc:creator><cc:Agent><dc:title>Pablo Stanley</dc:title></cc:Agent></dc:creator><dc:source>https://www.openpeeps.com/</dc:source><cc:license rdf:resource="https://creativecommons.org/publicdomain/zero/1.0/"/></cc:Work><cc:License rdf:about="https://creativecommons.org/publicdomain/zero/1.0/"><cc:permits rdf:resource="https://creativecommons.org/ns#Reproduction"/><cc:permits rdf:resource="https://creativecommons.org/ns#Distribution"/><cc:permits rdf:resource="https://creativecommons.org/ns#DerivativeWorks"/></cc:License></rdf:RDF></metadata><mask id="avatarsRadiusMask"><rect width="704" height="704" rx="0" ry="0" x="0" y="0" fill="#fff"/></mask><g mask="url(#avatarsRadiusMask)"><g fill-rule="evenodd" clip-rule="evenodd"><path d="M705.281 1074.02a2351.117 2351.117 0 0 1-11.084-68.46c-1.594-10.86-3.149-21.73-4.547-32.618-.979-7.628-2.47-16.351 2.72-22 7.303-7.952 13.937-14.758 14.831-26.149.841-10.717-2.783-22.4-5.049-32.803-4.752-21.816-10.668-43.362-17.205-64.704-6.641-21.683-13.923-43.162-21.31-64.6-6.906-20.044-13.545-40.269-22.54-59.5-17.071-36.495-45.951-63.522-81.643-81.568-8.877-4.488-26.983-20.51-36.257-24.097-8.526-3.298-8.495 6.333-16.886 2.705-6.708-2.9-12.954-6.767-16.71-13.244-4.078-7.033-14.305-16.869-15.862-25.055-3.299-17.351.275-32.12-12.109-45.179-10.994-11.597-25.771-19.542-41.061-23.807-33.636-9.381-78.494-2.822-98.788 28.433-9.693 14.926-13.08 32.968-26.159 45.149-11.421 10.636-8.865 17.908-23.657 23.39-.838.311-23.546-4.56-24.384-4.248-16.182-3.463-31.648 6.23-46.494 11.856-22.133 8.384-43.205 19.298-63.002 32.269-39.92 26.155-74.11 60.118-102.296 98.551-28.42 38.75-50.471 82.182-66.172 127.576a492.842 492.842 0 0 0-10.26 33.455c-1.69 6.307-3.497 12.849-1.438 19.305 1.684 5.283 5.43 9.216 9.829 12.385 5.963 4.297 17.924 7.09 17.69 15.732-.177 6.57-2.406 13.485-3.494 19.978-1.295 7.732-2.36 15.51-3.423 23.276-4.84 35.352-8.607 70.902-10.273 106.552-1.64 35.1-3.001 70.92-.566 106.01.16 2.31.85 4.44 1.964 6.23-1.04.4-1.12 2.34.174 2.61.906.19 1.81.39 2.716.58 1.882 1.42 4.229 2.29 6.93 2.38 1.83.06 3.66.14 5.49.23 19.3 4.04 38.599 7.85 58.152 10.74 23.768 3.5 47.606 6.36 71.518 8.69 49.135 4.78 97.883 3.19 147.083.62 49.124-2.58 98.219-3.18 147.394-1.9 49.218 1.28 98.418 3.42 147.647 4.3 54.999.98 109.914-.52 164.754-4.9 7.519-.59 12.171-6.58 10.688-14.04-8.885-44.75-18.954-89.19-26.911-134.13Z" fill="rgba(237, 185, 138, 1)"/><path d="m201.087 597.521 1.074-.414c14.518-5.671 29.628-14.822 45.421-11.442.558-.208 10.834 1.887 17.872 3.215l-6.68 6.973-11.79 2.268c40.673 67.128 88.778 100.692 144.314 100.692 55.537 0 97.678-33.564 126.425-100.692l3.923-1.085c.484.112 1 .271 1.552.485 9.274 3.587 27.379 19.608 36.256 24.096 35.692 18.047 64.572 45.073 81.643 81.569 8.695 18.59 15.189 38.108 21.85 57.494l.69 2.005c7.387 21.438 14.669 42.918 21.31 64.601 6.253 20.414 11.938 41.015 16.579 61.86l.626 2.844c2.266 10.403 5.89 22.085 5.049 32.803-.318 4.058-1.365 7.534-2.912 10.687l-80.446 28.947 38.326 261.393c-35.107 1.51-70.246 1.9-105.419 1.27-49.229-.88-98.429-3.02-147.647-4.3-47.685-1.24-95.294-.71-142.928 1.67l-12.097.62c-46.613 2.33-92.858 3.52-139.452-1.01l-3.175-.31v-38.24l16.367-212.911-82.945-15.613-81.422-39.546c-2.46-2.459-4.434-5.329-5.532-8.773-1.907-5.98-.498-12.033 1.064-17.905l.375-1.4a492.842 492.842 0 0 1 10.26-33.455c15.7-45.394 37.751-88.827 66.171-127.576 28.187-38.433 62.377-72.396 102.296-98.552 19.797-12.97 40.869-23.884 63.002-32.268Z" fill="rgba(231, 130, 118, 1)"/><path d="M232.235 584.564c5.086-.221 10.272.602 15.346 1.101.442.043.61.725.112.829-9.08 1.897-18.062 4.492-26.98 7.128l-3.819 1.13c-10.057 2.975-19.819 6.044-29.555 10.012-19.404 7.908-37.833 18.582-54.794 30.845C67.233 682.83 19.963 754.324-9.867 828.345a525.982 525.982 0 0 0-20.525 61.653 554.65 554.65 0 0 0-3.83 15.347c-.354 1.505-1.897 5.359-1.05 6.899.747 1.361 3.655 2.202 5.006 2.91l4.561 2.365c8.897 4.585 23.717 12.123 25.203 12.857l2.318 1.141c37.91 18.585 78.418 34.345 121.079 35.436l.334-3.643c1.902-20.141 4.398-40.389 9.846-59.911.293-1.049 1.628-.695 1.75.237 3.035 23.111 2.065 46.402 1.006 69.62-1.875 41.124-4.365 82.224-6.578 123.324-1.108 20.57-2.54 41.11-3.833 61.67-1.295 20.59-1.714 41.68-4.671 62.1-.659 4.55-5.991 7.03-10.029 6.55-4.468-.53-7.905-4.47-7.926-8.98-.054-11.9 1.441-23.94 2.272-35.8.789-11.28 1.636-22.55 2.504-33.82 3.172-41.13 6.821-82.21 10.196-123.33 1.196-14.58 2.488-29.147 3.818-43.715-45.193-1.457-87.414-18.196-127.692-37.754-.583 13.237-1.99 26.45-3.354 39.632-3.805 36.787-7.16 73.557-9.67 110.457-1.269 18.64-2.192 37.3-2.996 55.96a1708.912 1708.912 0 0 0-1.187 36.7l-.137 7.01c-.113 4.44-.564 8.55-4.3 11.78-3.796 3.29-8.922 3.46-12.678 0-5.028-4.63-4.139-10.93-3.99-17.15a1718.048 1718.048 0 0 1 1.775-47.18c1.886-36.64 5.655-73.13 10.58-109.47l1.922-14.03c3.59-26.08 7.532-52.754 15.558-77.877a1428.758 1428.758 0 0 1-9.345-4.691c-5.506-2.788-11.199-5.404-16.55-8.481-4.247-2.441-7.909-5.789-9.09-10.73-1.319-5.505.697-11.526 2.036-16.896l.116-.472a502.049 502.049 0 0 1 4.22-16.153c6.05-21.739 13.53-43.054 22.285-63.849 17.53-41.632 40.157-81.183 67.796-116.944 24.88-32.19 54.269-61.382 88.715-83.276 16.84-10.704 34.786-19.493 53.765-25.707 8.871-2.904 18.523-5.43 27.811-6.47 5.01-.56 10.027-.881 15.061-1.1Zm90.114-65.97c6.044-6.49 18.052.226 15.15 8.82-6.826 20.219-17.696 38.662-34.66 51.948-15.946 12.49-34.961 20.601-55.439 18.87a1.217 1.217 0 0 1-.416-.111l1.765 2.394c13.854 18.741 28.47 37.223 46.087 52.541 35.893 31.211 84.763 48.045 131.953 36.07 37.128-9.421 69.838-38.78 79.458-76.196-1.379.618-3.018.829-4.817.438-7.697-1.671-15.317-9.766-20.281-15.57-5.37-6.279-9.564-13.059-12.638-20.723-5.626-14.026-7.43-32.085.252-45.672.948-1.675 3.134-.736 3.32.899l.292 2.552c1.481 12.734 3.326 25.051 9.33 36.659 2.938 5.68 6.46 11.224 10.747 15.981 2.294 2.545 4.781 4.977 7.466 7.111 2.616 2.079 5.783 3.583 8.128 5.968l.43.458.012-.082c.593-5.041 4.128-7.262 7.587-7.123 3.347.135 7.279 1.608 8.802 2.314l.144.068c23.352 11.21 44.859 25.821 65.099 42.031 41.856 33.524 73.217 77.349 88.412 128.957 7.458 25.329 11.737 51.428 16.254 77.405l2.782 15.917c4.216 23.981 8.926 48.435 18.444 70.743 2.462 5.771.564 11.183-5.473 13.452-7.538 2.834-15.104 5.578-22.682 8.288 3.721 15.963 5.99 32.479 8.778 48.519 5.926 34.1 13.187 67.98 19.413 102.04 3.183 17.41 6.055 34.88 9.235 52.29 1.531 8.39 3.129 16.76 4.683 25.14.837 4.52 1.596 9.06 2.395 13.58l.139.76c.458 2.38 1.033 4.85.376 7.24-.749 2.73-2.876 4.65-4.775 6.61-1.563 1.61-3.822 1.62-5.737.74l-.63-.29c-3.42-1.6-6.1-3.2-7.313-7.06-.768-2.44-1.045-5.19-1.547-7.71-.963-4.82-1.876-9.66-2.738-14.5a3535.65 3535.65 0 0 1-5.052-29.1l-1.536-9.09c-5.27-31.33-10.275-62.85-12.805-94.51-1.123-14.05-2.312-28.08-3.513-42.12l-.901-10.524c-1.14-13.325-2.533-26.987-2.73-40.492l-4.532 1.609-22.11 7.816c-5.482 1.937-12.462 5.907-18.362 5.185-2.888-.354-5.09-1.263-6.79-2.915 2.036 28.733 4.792 57.421 8.465 85.951 3.342 25.97 7.047 51.9 11.423 77.71 2.167 12.78 4.394 25.55 6.813 38.29 1.209 6.37 2.457 12.73 3.743 19.08.641 3.17 1.404 6.35 1.904 9.54.572 3.66-.436 5.91-2.481 8.93-1.679 2.47-5.038 3.74-7.761 2.03-3.606-2.26-5.487-4.22-6.548-8.34-.964-3.75-1.55-7.65-2.296-11.44-1.377-7-2.708-14.01-3.993-21.02-2.687-14.68-5.164-29.38-7.376-44.14-7.795-51.97-12.741-104.37-15.239-156.859-1.233-25.897-1.614-51.817-1.395-77.741.112-13.288.546-26.614 1.486-39.869.952-13.417 2.932-26.566 4.7-39.854.062-.468.722-.495.75 0 .837 14.898 2.149 29.779 2.792 44.716.614 14.253.883 28.528 1.371 42.786.641 18.742 1.53 37.495 2.707 56.235 2.131-2.331 5.343-3.675 8.557-3.15 4.656-.977 9.668-3.42 14.107-4.903l16.734-5.59c8.797-2.938 17.594-5.856 26.422-8.686-7.893-26.553-13.3-53.502-17.917-80.844l-2.059-12.297c-4.075-24.204-8.47-48.419-15.852-71.858-7.761-24.642-19.375-47.552-34.782-68.299-15.187-20.447-33.664-38.451-52.688-55.291-16.287-14.416-33.71-27.432-50.322-41.452.174.929.211 1.952.058 3.076-3.532 25.85-17.017 49.923-35.81 67.828-37.755 35.971-93.642 43.434-141.964 26.566-46.743-16.316-88.07-54.958-102.671-102.775-.25-.818.846-1.143 1.286-.542.81 1.11 1.624 2.22 2.439 3.33-.055-.441.174-.921.718-1.131 17.036-6.578 33.765-15.907 46.535-29.104 6.224-6.433 11.656-13.721 15.944-21.581 2.054-3.765 3.899-7.664 5.371-11.693l.374-1.042c1.784-5.047 3.275-10.193 6.999-14.192Z" fill="#000"/></g><g transform="matrix(.99789 0 0 1 156 62)"><g fill-rule="evenodd" clip-rule="evenodd"><path d="M428.872 194.624C409.167 75.447 258.707 53.96 160.663 79.044c-1.807-22.924-16.249-43.18-34.271-56.504C49.836-32.549-40.798 60.981-22.653 141.589c3.255 24.419 22.775 52.284 50.086 48.105-34.33 64.967-47.744 195.97 27.893 236.466 7.297 5.193 8.508 15.74 14.124 22.503 9.117 10.907 48.068 24.8 69.14 13.666 6.621 6.084 14.26 12.004 23.191 14.109 46.138 36.932 113.565 45.265 169.747 30.026 34.614-5.874 70.496-21.488 88.304-53.389 15.089-24.279 8.136-52.726 1.217-78.423-2.989-14.136-4.935-28.385-6.133-42.754 2.454-2.865 2.591-6.843 3.203-10.466 2.657-12.841 8.463-24.758 11.367-37.562 6.497-29.066 5.369-60.12-.614-89.246" fill="rgba(237, 185, 138, 1)"/><path d="M1.051 65.474C18.072 33.059 51.44 14.77 84.811 17.279c34.142 2.566 60.271 26.105 66.321 64.112l.177 1.156.364 2.467-.332.113.16.28.286.479c.339.552.755 1.18 1.323 2l.76 1.083 2.555 3.586.18.257.545.784 1.097-.388c53.496-18.68 113.083-18.488 166.346 1.375l1.612.608 1.485.573.838.218c32.656 8.636 58.751 29.404 76.614 59.139l.539.904.544.928c16.306 28.003 24.667 62.617 24.079 97.369l-.021 1.064-.008.17-.09 1.048c-.776 8.34-2.875 15.794-7.218 27.161l-.554 1.441-.86 2.2-2.677 6.781-.655 1.688-7.68 20.163 1.422-20.237c.159-2.251.247-4.227.322-7.244l.014-.544.172-8.564.051-1.913c.027-.89.056-1.693.09-2.477l.055-1.168.103-1.816.024-.378-.049-.408c-1.635-12.862-7.539-23.845-17.701-34.249l-.53-.538-.537-.536-.641-.632c-7.488-7.322-15.058-12.921-30.739-23.194l-.677-.443-9.112-5.929-3.411-2.236c-7.519-4.953-12.101-8.161-16.947-11.901l-1.043-.811-.817-.642c-8.389-6.64-14.942-13.165-19.973-20.204l-.468-.661-.991-1.421.708-1.516-.011.02-.001-.006.034-.162.048-.271.049-.328a32.42 32.42 0 0 0 .219-2.461c.019-.347.036-.702.049-1.061l.017-.543.008-.468-.187.552c-9.714 28.038-32.734 51.432-65.182 68.696l-.986.521-1.115.581c-31.981 16.551-71.103 26.053-105.021 26.322l-1.093.005-1.08.003-.834-.687c-3.112-2.565-8.84.628-7.798 5.196 9.64 42.26 11.662 86 5.775 128.149l-.209 1.469-.023.139-.224 1.193a154.983 154.983 0 0 0-.583 3.407l-.318 2.025-1.227 8.205-.557 3.515-.242 1.426c-2.072 11.963-4.698 20.101-9.471 27.12l-.457.661-.469.449-.459.46c-.94.968-1.531 1.752-1.82 2.3l-.061.122-.035.075.083.033c1.517.544 4.622.434 7.208-.276l.321-.092.302-.094 2.094-.68 1.461 2.053.435.605a158.537 158.537 0 0 0 2.684 3.589l1.233 1.598 2.848 3.659-2.614 1.806c-8.822 6.094-21.154 4.883-34.257-.831l-.511-.225-.185-.09c-6.248-3.307-10.34-7.303-17.08-15.82l-.79-1.003-3-3.847-1.142-1.441a99.333 99.333 0 0 0-2.163-2.62l-.229-.265-.798-.912-.176-.353c-3.298-6.638-8.013-11.053-16.268-15.802l-1.164-.66-.746-.511c-20.944-14.522-33.306-37.429-38.504-67.138-4.063-23.222-3.643-49.351.08-78.695l.18-1.4.191-1.458c3.222-24.696 10.59-47.754 21.761-68.746l.581-1.084.524-.965-2.62-2.079-1.076-.837a36.061 36.061 0 0 0-2.129-1.541l-.316-.203-.294-.182-.08.147-1.999-.214c-8.443-.902-16.767-4.549-23.544-10.171l-.558-.471-.543-.544c-13.098-13.319-19.53-31.784-19.535-52.87-.005-18.638 5.108-38.473 13.854-55.16l.433-.818.497-.918Z" fill="rgba(232, 225, 225, 1)"/><path d="M427.294 255.319c-1.138 14.37-7.229 27.3-12.328 40.692.557-7.924.295-16.17.85-24.398-5.93-51.523-75.997-65.059-103.197-104.018 1.03-2.2 1.401-21.871-2.655-16.339-15.733 68.845-109.244 103.384-173.266 103.517-4.842-3.99-14.445.225-12.631 8.179 9.574 41.971 11.67 85.876 5.522 128.523-2.897 15.059-3.386 33.179-12.421 46.155-9.59 9.121 1.939 9.853 8.284 7.794 1.769 2.487 3.636 4.902 5.51 7.308-9.114 6.296-22.412 2.862-31.845-1.329-10.493-5.554-16.491-16.317-24.094-24.944-4.151-8.355-10.447-13.157-18.541-17.682-45.03-30.604-43.866-97.738-37.402-146.259C37.916 118.132 198.172 48.465 326.783 98.625c69.457 17.761 101.999 89.573 100.511 156.694M8.389 173.576C-19.078 146.222-13.55 98.402 3.717 66.868 38.315.981 136.584 3.122 148.35 82.984c-50.113 17.167-92.4 53.978-117.575 100.459-8.197-.876-16.121-4.527-22.387-9.867m420.483 21.07C409.167 75.469 258.708 53.982 160.663 79.067c-1.806-22.925-16.248-43.18-34.271-56.506-76.556-55.088-167.19 38.442-149.045 119.05 3.255 24.419 22.775 52.284 50.086 48.105-34.33 64.967-47.743 195.97 27.893 236.466 7.297 5.194 8.508 15.741 14.124 22.502 9.117 10.908 48.068 24.802 69.14 13.667 5.01 6.147 33.447 24.841 31.374 6.516-2.092-4.937-8.556-6.225-12.86-8.665-9.046-4.994-16.905-12.032-23.08-20.299 19.395-54.688 17.917-115.581 7.052-171.891 64.93-3.266 141.332-31.726 169.971-94.221 19.36 45.48 79.398 51.333 94.564 102.182.915 26.707-4.812 53.018-.659 79.738 1.219 26.172 15.054 52.17 7.055 78.17-22.346 56.698-102.789 65.018-155.936 62.648-12.624-1.042-23.101-7.864-33.479-14.341-6.22-2.952-13.624 3.223-9.813 9.814 14.551 20.305 44.48 22.08 67.462 21.348 59.643-3.536 145.839-21.157 148.935-94.805-1.967-29.195-13.423-57.135-14.259-86.625 2.453-2.865 2.59-6.843 3.202-10.466 2.657-12.842 8.464-24.758 11.367-37.562 6.497-29.066 5.37-60.119-.614-89.246" fill="#000"/></g></g><g transform="translate(315 248)"><path fill-rule="evenodd" clip-rule="evenodd" d="M182.162 217.944c-6.343-3.052-13.599-2.841-20.251-.822-7.874 2.392-14.846 7.36-21.051 12.649-2.421 2.064-4.721 4.395-7.031 6.738-2.934 2.977-5.878 5.983-9.147 8.42 1.078-9.183 7.522-18.508 13.055-25.253 6.789-8.273 16.243-14.979 26.463-18.222 10.884-3.455 22.114-1.556 30.928 4.053 8.734 5.558 15.095 14.763 16.377 26.02.269 2.365-.836 4.529-2.476 6.169-1.913 1.913-4.599 3.173-7.104 3.173-2.556 0-4.823-1.03-6.505-2.671a10.281 10.281 0 0 1-3.05-6.706c-.108-2.766-.749-5.188-3.073-8.106-1.561-1.959-4.496-4.172-7.135-5.442Zm16.127-96.642c-2.632.957-5.69 3.268-6.579 5.798a5.393 5.393 0 0 0-.314 1.703c-.857-1.741-1.183-3.792-1.071-5.821.354-6.446 6.502-11.124 11.739-13.858a19.753 19.753 0 0 1 5.679-1.957l6.745-1.203-6.333-2.615a63.067 63.067 0 0 1-16.205-9.789c-4.669-3.876-8.985-8.89-11.518-14.42-1.144-2.499-2.042-4.942-2.671-7.582l-.169-.742c-.309-1.422-.648-2.148-1.028-2.953-.222-.472-.465-.98-.725-1.807-.146-.464-.228-.853-.092-1.156.132-.293.452-.419.765-.537 2.067-.782 5.398-.25 6.812.316 3.419 1.367 6.424 4.346 9.316 7.137 1.411 1.361 2.793 2.692 4.166 3.83 8.759 7.262 19.692 11.393 30.376 12.401l.642.057c2.826.232 5.446 1.345 7.302 3.201 1.66 1.66 2.685 3.918 2.685 6.622 0 2.634-1.185 5.17-3.027 7.011-1.758 1.759-4.136 2.898-6.718 2.806a55.527 55.527 0 0 1-5.402-.466l-6.65-.891 5.077 4.387a18.346 18.346 0 0 1 2.808 3.029c4.626 6.3 6.612 15.903 6.44 23.613a9.151 9.151 0 0 1-1.189 4.296c-.655 1.142-1.576 2.128-2.764 2.743-1.421.738-2.624 1.131-4.243 1.162a6.996 6.996 0 0 1-4.476-1.455c-1.532-1.166-2.657-2.886-3.43-4.763-1.027-2.496-1.088-5.131-1.19-7.766-.07-1.821-.146-3.644-.449-5.442-.433-2.295-1.471-5.22-2.78-6.143-1.933-1.364-7.075-.314-10.269.803l-1.26.451Zm-27.474 23.065c7.551 4.59 19.057 15.293 10.933 26.673-9.562 10.033-23.329-1.471-30.114-6.674-6.29-4.032-13.358 6.338-7.522 11.047 49.024 36.295 68.919-29.846 30.522-36.443-4.228-.727-5.798 3.977-3.819 5.397Zm-53.561-14.571c-2.064-2.328-4.074-4.498-7.178-5.734-3.673-1.464-8.123-1.621-11.944-.524-4.331 1.243-7.76 4.115-10.302 7.782-2.232 3.223-3.77 7.058-4.646 10.841-1.636-1.798-2.402-3.876-2.771-5.99-.608-3.48-.177-7.066 1.009-10.477 2.64-7.593 9.003-14.344 16.422-17.25 8.47-3.318 18.95-2.21 26.731 2.461 3.97 2.385 8.545 6.522 10.85 10.568 1.574 2.766 1.665 5.629.664 8.089-1.101 2.707-3.478 4.906-6.513 6.009-1.437.524-2.917.482-4.321.11-1.827-.483-3.534-1.514-4.926-2.716-1.16-1-2.127-2.099-3.075-3.169Zm12.656-47.89c-1.739 2.326-4.299 3.515-6.967 3.64a9.9 9.9 0 0 1-.819.004l-.59.674c-.521.593-.862.983-1.217 1.36a60.21 60.21 0 0 1-4.036 3.91c-3.128 2.764-6.497 5.188-10.142 7.223-6.383 3.566-13.384 6.347-20.583 7.675-7.144 1.317-14.195 1.722-21.389.69l-1.745-.251c-4.155-.609-9.602-1.403-13.015-3.977 1.344-.428 2.705-.449 4.033-.507a55.289 55.289 0 0 0 2.59-.156c4.026-.366 7.938-1.034 11.836-2.113C75.443 97.981 82.31 95.085 89 90.935c6.559-4.067 12.582-9.604 17.38-15.668l.575-.736c.245-.316.486-.632.726-.945 1.963-2.565 3.766-5.01 6.815-6.637 2.416-1.289 4.861-1.637 7.212-1.266 2.728.43 5.318 1.803 7.613 3.725 1.697 1.42 2.482 3.467 2.607 5.565.147 2.469-.604 5.04-2.018 6.933Z" fill="#000"/></g><g transform="translate(279 400)"/><g transform="translate(179 343)"/><g transform="translate(203 303)"/></g></svg>