
<svg xmlns:dc="http://purl.org/dc/elements/1.1/" xmlns:cc="http://creativecommons.org/ns#" xmlns:rdf="http://www.w3.org/1999/02/22-rdf-syntax-ns#" xmlns:svg="http://www.w3.org/2000/svg" xmlns="http://www.w3.org/2000/svg" viewBox="0 0 64 64" fill="none"><metadata><rdf:RDF><cc:Work><dc:format>image/svg+xml</dc:format><dc:type rdf:resource="http://purl.org/dc/dcmitype/StillImage"/><dc:title>Miniavs - Free Avatar Creator</dc:title><dc:creator><cc:Agent><dc:title>Webpixels</dc:title></cc:Agent></dc:creator><dc:source>https://www.figma.com/community/file/923211396597067458</dc:source><cc:license rdf:resource="https://creativecommons.org/licenses/by/4.0/"/></cc:Work><cc:License rdf:about="https://creativecommons.org/licenses/by/4.0/"><cc:permits rdf:resource="https://creativecommons.org/ns#Reproduction"/><cc:permits rdf:resource="https://creativecommons.org/ns#Distribution"/><cc:permits rdf:resource="https://creativecommons.org/ns#DerivativeWorks"/><cc:requires rdf:resource="https://creativecommons.org/ns#Notice"/><cc:requires rdf:resource="https://creativecommons.org/ns#Attribution"/></cc:License></rdf:RDF></metadata><mask id="avatarsRadiusMask"><rect width="64" height="64" rx="0" ry="0" x="0" y="0" fill="#fff"/></mask><g mask="url(#avatarsRadiusMask)"><g><path d="M46.07 40.409c.47 7.492.939 14.986-11.07 15.55v9.912S31.357 68 26.5 68 18 64.523 18 64.523V45.096a27.765 27.765 0 0 1-.412-3.113 5 5 0 0 1-.89-9.812C15.36 22.643 17.508 13 32.001 13c14.587 0 14.235 11.08 13.957 19.815-.037 1.145-.072 2.25-.072 3.284 0 1.403.091 2.856.183 4.31Z" fill="rgba(245, 208, 197, 1)"/><path d="M17.588 41.984c-.158-1.97-.158-3.974-.158-5.884a46.698 46.698 0 0 1-.733-3.928 5.002 5.002 0 0 0 .89 9.812ZM18 45.094V64.52s3.643 3.477 8.5 3.477 8.5-2.13 8.5-2.13v-9.91c-.48.022-.979.033-1.498.033-10.792 0-14.337-4.946-15.502-10.897Z" fill="#000" fill-opacity=".07"/><path d="M34.932 55.96c-.459.021-.935.032-1.43.032-7.248 0-11.227-2.231-13.412-5.5.503 4.823 3.162 8.493 8.293 8.493.49 0 .944.004 1.365.007 3.796.033 4.922.043 5.184-3.031Z" fill="#000" fill-opacity=".07"/><rect x="36" y="41" width="3" height="2" rx="1" fill="#000" fill-opacity=".07"/></g><g><rect x="7" y="60" width="40" height="23" rx="9" fill="rgba(54, 51, 224, 1)"/><path d="M17 58h19v3s-5 1-9.5 1-9.5-1-9.5-1v-3Z" fill="rgba(54, 51, 224, 1)"/><path d="M17 58h19v2s-3 1.5-9.5 1.5S17 60 17 60v-2Z" fill="#000" fill-opacity=".2"/><path d="M16.5 59a2 2 0 0 1 2-2h16a2 2 0 0 1 2 2s-5 1-10 1-10-1-10-1Z" fill="rgba(54, 51, 224, 1)"/></g><g><path d="M29.697 26.203c5.611 1.863 13.389 4.445 21.535-3.701 4-4-14-21-28.5-11.5-11.333 1.679-10.685 8.47-10.185 13.71.095 1.002.185 1.948.185 2.79 0 .533.07.931.2 1.218a26.48 26.48 0 0 0-.2 3.282 4 4 0 1 0 8 0A4 4 0 0 0 24.606 27l.126.002c1.224 0 2.32-.55 3.053-1.416.605.183 1.243.395 1.912.617Z" fill="rgba(173, 58, 32, 1)"/></g><g transform="translate(1)"><path d="M27.93 46a1 1 0 0 1 1-1h9.142a1 1 0 0 1 1 1 5 5 0 0 1-5 5H32.93a5 5 0 0 1-5-5Z" fill="#66253C"/><path d="M35.756 50.708a4.992 4.992 0 0 1-1.684.29H32.93a5 5 0 0 1-4.996-4.8c.764-.285 1.898-.253 3.017-.22.356.01.71.02 1.05.02 2.21 0 4 1.568 4 3.5 0 .426-.087.833-.245 1.21Z" fill="#B03E67"/><path d="M29 45h10v1a1 1 0 0 1-1 1h-8a1 1 0 0 1-1-1v-1Z" fill="#fff"/></g><g transform="translate(0 -1)"><g fill="rgba(173, 58, 32, 1)"><rect x="30" y="36" width="3" height="4" rx="1.5"/><rect x="40" y="36" width="3" height="4" rx="1.5"/></g><g/></g><g/><g/></g></svg>